HIERARCHY
ROOT Hips
{
  OFFSET 0.0000 0.0000 0.0000
  CHANNELS 6 Xposition Yposition Zposition Zrotation Xrotation Yrotation
  JOINT LeftHip
  {
    OFFSET 3.4300 0.0000 0.0000
    CHANNELS 3 Zrotation Xrotation Yrotation
    JOINT LeftKnee
    {
      OFFSET 0.0000 -18.4700 0.0000
      CHANNELS 3 Zrotation Xrotation Yrotation
      JOINT LeftAnkle
      {
        OFFSET -0.0000 -17.9500 -0.0000
        CHANNELS 3 Zrotation Xrotation Yrotation
        End Site
        {
            OFFSET 0.0000 -3.1200 0.0000
        }
      }
    }
  }
  JOINT RightHip
  {
    OFFSET -3.4300 0.0000 0.0000
    CHANNELS 3 Zrotation Xrotation Yrotation
    JOINT RightKnee
    {
      OFFSET 0.0000 -18.4700 0.0000
      CHANNELS 3 Zrotation Xrotation Yrotation
      JOINT RightAnkle
      {
        OFFSET 0.0000 -17.9500 0.0000
        CHANNELS 3 Zrotation Xrotation Yrotation
        End Site
        {
            OFFSET -0.0000 -3.1200 -0.0000
        }
      }
    }
  }
  JOINT Chest
  {
    OFFSET 0.0000 4.5700 0.0000
    CHANNELS 3 Zrotation Xrotation Yrotation
    JOINT Chest2
    {
      OFFSET 0.0000 6.5700 -0.0000
      CHANNELS 3 Zrotation Xrotation Yrotation
      JOINT LeftCollar
      {
        OFFSET 1.0600 4.1900 1.7600
        CHANNELS 3 Zrotation Xrotation Yrotation
        JOINT LeftShoulder
        {
          OFFSET 5.8100 0.0000 -0.0000
          CHANNELS 3 Zrotation Xrotation Yrotation
          JOINT LeftElbow
          {
            OFFSET 0.0000 -12.0800 -0.0000
            CHANNELS 3 Zrotation Xrotation Yrotation
            JOINT LeftWrist
            {
              OFFSET 0.0000 -9.8200 -0.0000
              CHANNELS 3 Zrotation Xrotation Yrotation
              End Site
              {
                  OFFSET 0.0000 -7.3700 -0.0000
              }
            }
          }
        }
      }
      JOINT RightCollar
      {
        OFFSET -1.0600 4.1900 1.7600
        CHANNELS 3 Zrotation Xrotation Yrotation
        JOINT RightShoulder
        {
          OFFSET -6.0600 0.0000 0.0000
          CHANNELS 3 Zrotation Xrotation Yrotation
          JOINT RightElbow
          {
            OFFSET 0.0000 -11.0800 0.0000
            CHANNELS 3 Zrotation Xrotation Yrotation
            JOINT RightWrist
            {
              OFFSET 0.0000 -9.8200 0.0000
              CHANNELS 3 Zrotation Xrotation Yrotation
              End Site
              {
                  OFFSET 0.0000 -7.1400 0.0000
              }
            }
          }
        }
      }
      JOINT Neck
      {
        OFFSET -0.0000 4.0500 0.0000
        CHANNELS 3 Zrotation Xrotation Yrotation
        JOINT Head
        {
          OFFSET 0.0000 5.1900 0.0000
          CHANNELS 3 Zrotation Xrotation Yrotation
          End Site
          {
              OFFSET 0.0000 4.1400 0.0000
          }
        }
      }
    }
  }
}
MOTION
Frames:	34
Frame Time:	0.030000
-5.5083 37.9186 -14.4302 -4.79 0.98 -7.31 6.74 -27.18 7.63 -0.21 4.51 58.08 -2.34 1.98 0.80 3.77 8.57 -8.63 8.60 18.86 -46.25 8.38 -23.42 -0.55 4.60 5.91 1.25 0.00 0.00 2.28 -16.39 3.37 -10.99 29.12 0.75 25.43 -5.83 -7.88 -3.45 12.95 3.08 2.73 20.43 5.03 15.05 -44.30 -1.52 -5.11 15.18 -2.68 64.46 -21.47 -2.37 0.22 0.36 -3.03 3.77 0.60 20.18 3.40 
-5.1196 37.9905 -13.2467 -3.29 1.18 -7.12 5.99 -28.22 8.89 -1.91 8.30 57.09 -2.10 4.58 -0.88 2.72 10.98 -9.98 6.48 16.26 -45.56 8.51 -21.90 -0.98 3.26 5.01 1.07 0.00 0.00 1.78 -17.36 4.67 -15.74 30.92 2.69 26.20 -5.66 -7.33 0.29 12.41 3.54 2.76 20.22 5.21 15.83 -43.15 1.63 -6.58 14.71 -2.19 63.05 -20.40 -2.30 0.28 0.95 -1.63 3.41 -0.42 16.34 3.65 
-4.7064 38.1898 -11.7514 -2.17 1.62 -7.13 6.21 -28.53 11.30 -4.49 11.69 54.48 -2.16 5.71 -0.96 1.15 11.99 -10.85 5.97 16.25 -46.24 9.20 -18.94 -1.36 2.27 4.09 0.84 0.00 0.00 1.31 -17.92 5.33 -17.97 32.68 3.26 27.07 -5.31 -6.58 -1.54 9.86 3.77 2.43 20.49 5.17 15.51 -41.93 4.65 -7.98 14.31 -1.16 62.22 -19.66 -1.78 0.45 1.53 -2.66 3.12 -1.33 13.76 3.82 
-4.3077 38.7065 -10.3695 -1.61 2.02 -7.85 6.08 -26.59 11.48 -6.37 11.49 53.01 -2.40 4.72 1.35 -1.49 10.25 -11.20 7.59 20.16 -49.27 9.55 -14.11 -1.45 1.77 3.60 1.04 0.00 0.00 1.41 -16.46 4.44 -15.45 32.79 0.75 26.24 -5.54 -5.64 -8.46 3.88 1.86 1.81 20.47 5.10 15.30 -40.86 6.59 -8.35 14.41 0.43 61.92 -17.91 -1.62 0.41 1.97 -5.31 2.88 -2.03 13.28 3.88 
-4.0069 39.2555 -9.0531 -1.38 2.15 -8.93 5.02 -23.81 9.53 -6.09 9.71 53.27 -2.56 5.10 2.94 -4.02 9.00 -11.24 9.91 22.63 -52.83 8.91 -8.93 -1.35 1.68 3.32 1.62 0.00 0.00 1.96 -14.64 3.58 -13.00 33.09 -1.98 24.96 -5.95 -4.43 -12.36 3.00 0.46 1.55 19.99 5.13 15.69 -39.74 7.89 -7.54 15.02 1.98 63.81 -15.00 -2.64 0.21 2.06 -7.87 2.52 -2.49 13.91 3.66 
-3.7959 39.6884 -7.8845 -1.52 2.14 -10.07 3.71 -21.78 7.30 -4.31 9.17 54.82 -2.91 5.29 3.23 -5.06 10.28 -11.09 11.88 19.25 -53.84 7.12 -5.70 -1.49 1.65 3.05 2.07 0.00 0.00 2.41 -12.65 2.77 -10.48 34.43 -4.14 25.40 -5.59 -2.40 -9.73 2.96 0.28 1.63 20.15 5.53 17.08 -39.39 8.07 -6.66 15.37 3.65 67.98 -11.64 -4.33 -0.00 2.70 -10.15 2.30 -3.04 15.17 3.74 
-3.6578 39.9767 -6.9494 -1.79 2.02 -11.03 2.89 -20.24 5.99 -2.93 9.25 56.03 -3.14 4.92 3.19 -4.49 12.35 -10.61 13.12 13.28 -49.64 3.96 -5.47 -1.37 1.89 2.54 2.40 0.00 0.00 2.78 -11.96 2.53 -9.71 38.16 -4.25 26.31 -5.35 -0.36 -5.10 1.90 1.33 1.60 20.24 5.90 18.34 -39.47 6.77 -6.13 15.14 5.24 74.20 -7.05 -5.92 -0.10 2.56 -11.13 2.23 -2.72 15.97 3.53 
-3.5964 40.1630 -6.2762 -1.97 1.81 -11.53 2.54 -18.74 5.47 -2.48 8.82 56.43 -3.28 4.64 3.28 -2.55 12.95 -9.90 12.30 8.93 -45.71 1.63 -5.83 -1.20 1.82 2.38 2.57 0.00 0.00 2.93 -11.82 2.76 -10.96 43.90 -2.35 26.61 -5.71 0.91 -3.41 1.24 2.21 1.62 21.04 6.31 19.21 -40.66 3.36 -5.01 15.56 6.62 77.11 -4.15 -6.01 -0.24 2.33 -11.00 2.19 -2.00 15.58 3.19 
-3.5888 40.2352 -5.8499 -2.08 1.51 -11.50 2.28 -17.93 5.18 -2.24 9.09 56.07 -3.35 4.26 3.52 0.32 12.34 -9.23 9.48 6.01 -47.02 1.57 -5.91 -1.31 1.52 2.28 2.71 0.00 0.00 3.02 -11.69 3.01 -12.35 50.15 0.20 26.50 -6.26 1.56 -4.86 1.53 2.17 1.67 21.73 6.67 19.93 -42.03 -1.06 -4.31 15.84 7.33 77.65 -1.71 -5.90 -0.38 1.91 -9.60 2.00 -0.89 14.05 2.56 
-3.6619 40.2685 -5.5952 -2.32 1.25 -11.51 2.68 -17.63 5.62 -2.53 9.98 55.35 -3.22 3.56 3.61 2.33 10.52 -8.19 8.06 5.25 -51.73 1.55 -6.22 -1.60 0.93 2.36 3.15 0.00 0.00 3.35 -10.80 2.66 -11.13 55.99 0.26 26.19 -6.74 1.92 -8.07 2.82 2.02 1.69 22.44 6.97 20.39 -43.60 -6.57 -3.75 16.11 7.47 76.52 -0.77 -6.52 -0.26 2.19 -8.48 1.52 -0.13 12.83 1.95 
-3.7588 40.2157 -5.4719 -2.45 1.02 -11.65 3.31 -18.19 6.44 -3.06 12.15 54.72 -3.14 2.41 3.45 3.38 8.75 -7.80 7.32 5.47 -58.52 1.99 -6.73 -1.93 0.52 2.37 3.71 0.00 0.00 3.84 -10.37 2.33 -9.64 61.42 0.19 26.14 -7.04 1.39 -9.59 4.54 1.96 1.76 22.52 7.10 20.77 -45.65 -12.66 -2.05 17.38 6.92 73.21 0.15 -7.45 -0.12 1.38 -7.56 1.22 1.38 11.50 1.03 
-3.8237 40.1605 -5.4239 -2.29 0.85 -11.76 3.50 -18.55 6.85 -3.46 13.40 54.56 -3.13 1.73 3.33 3.75 8.49 -7.86 6.75 3.97 -65.69 1.95 -6.57 -2.20 -0.13 2.17 4.41 -0.00 0.00 4.43 -10.05 2.09 -8.50 66.48 0.30 26.44 -7.09 0.37 -10.12 6.56 1.81 2.00 22.46 7.17 21.06 -48.35 -18.74 -0.44 18.89 5.53 69.20 1.85 -8.68 0.07 0.54 -6.73 0.86 2.81 10.17 0.08 
-3.8330 40.0527 -5.3996 -1.71 0.71 -11.87 3.15 -19.10 6.79 -3.83 14.62 54.90 -3.38 1.12 3.28 3.95 8.73 -8.10 5.75 3.72 -65.72 2.00 -7.68 -2.06 -0.89 1.72 5.20 -0.00 0.00 5.08 -9.91 2.02 -8.19 71.28 0.85 26.82 -7.06 -0.40 -9.56 6.93 1.21 2.12 21.93 7.19 21.56 -51.60 -24.49 0.52 20.12 3.94 64.95 1.78 -9.25 0.26 -0.68 -5.17 0.67 4.31 8.17 -0.78 
-3.8141 39.9612 -5.4781 -1.34 0.93 -11.83 2.89 -19.97 6.69 -3.95 15.48 55.11 -3.53 0.81 3.29 4.04 9.06 -8.20 5.38 2.91 -63.90 1.41 -8.75 -1.94 -1.55 1.18 5.99 -0.00 0.00 5.75 -9.32 1.95 -8.14 75.71 1.49 27.01 -7.07 -1.01 -9.59 6.59 1.34 2.22 21.53 7.15 21.72 -55.84 -30.18 0.54 21.07 1.98 60.56 1.53 -9.87 0.43 -1.15 -3.98 0.42 5.20 6.32 -1.32 
-3.7679 39.9319 -5.6675 -1.10 1.47 -11.61 2.49 -20.71 6.36 -3.65 15.05 55.27 -3.37 1.17 3.27 4.02 8.73 -8.21 5.33 1.99 -63.50 0.62 -9.14 -1.97 -1.95 0.62 6.66 -0.00 0.00 6.35 -8.53 1.81 -7.75 79.21 1.86 27.06 -7.14 -1.56 -10.04 6.27 1.59 2.24 20.88 6.90 21.39 -60.73 -35.70 -0.93 21.46 -0.45 56.55 3.90 -11.60 0.77 -1.02 -3.91 -0.17 5.43 5.46 -1.88 
-3.7197 39.9066 -5.8759 -0.91 1.87 -11.13 2.04 -21.28 5.90 -3.36 14.50 55.28 -3.29 1.67 3.32 4.10 8.28 -8.15 5.13 1.53 -63.67 0.31 -9.41 -1.97 -2.23 0.31 7.23 -0.00 0.00 6.87 -7.58 1.64 -7.27 81.88 1.84 27.40 -7.08 -1.28 -10.83 5.92 1.21 2.14 19.96 6.56 20.96 -66.57 -40.30 -4.06 21.25 -3.71 52.54 6.50 -13.13 1.21 -0.83 -4.22 -0.86 5.45 5.07 -2.49 
-3.6961 39.8688 -6.1074 -0.85 2.18 -10.09 1.53 -21.88 5.37 -2.98 14.04 54.69 -3.03 2.21 3.43 4.38 7.90 -8.04 5.04 1.08 -64.62 0.07 -9.70 -1.93 -2.47 0.29 7.50 -0.00 0.00 7.11 -6.48 1.46 -6.79 83.93 1.82 27.66 -7.03 -0.99 -11.46 5.40 0.41 2.00 19.12 6.25 20.52 -73.74 -43.97 -8.19 21.08 -6.55 47.66 7.15 -14.16 1.61 -0.58 -5.14 -1.64 5.46 5.29 -3.17 
-3.6532 39.8460 -6.2883 -0.81 2.47 -9.18 1.03 -22.34 4.81 -2.65 13.57 54.29 -2.89 2.76 3.53 4.49 7.52 -8.03 5.09 0.81 -65.40 -0.10 -9.91 -1.88 -2.69 0.28 7.89 -0.00 0.00 7.45 -5.72 1.35 -6.47 85.97 2.22 27.45 -7.14 -1.13 -11.65 5.19 0.18 1.91 18.30 5.93 20.02 -80.76 -46.53 -13.77 20.28 -8.86 43.66 7.92 -15.27 2.06 -0.36 -5.92 -2.44 5.53 5.43 -3.91 
-3.6054 39.8324 -6.4464 -0.83 2.72 -8.35 0.66 -22.71 4.37 -2.45 13.14 53.93 -2.78 3.23 3.59 4.56 7.09 -8.04 5.25 0.76 -66.08 -0.24 -10.11 -1.90 -2.84 0.25 8.22 -0.00 0.00 7.76 -5.25 1.23 -5.85 87.98 2.71 26.93 -7.40 -1.36 -11.44 5.42 0.19 1.88 17.65 5.73 19.79 -87.97 -48.00 -19.59 19.43 -11.27 40.00 9.25 -15.89 2.33 0.13 -6.66 -3.23 5.41 5.59 -4.50 
-3.5489 39.8147 -6.5926 -0.94 2.96 -7.49 0.44 -23.04 4.18 -2.43 12.73 53.35 -2.55 3.48 3.60 4.58 6.58 -8.10 5.57 0.97 -66.77 -0.33 -10.40 -1.88 -2.94 0.11 8.53 -0.00 0.00 8.06 -4.84 1.11 -5.21 89.53 3.36 26.76 -7.42 -1.98 -11.22 5.72 0.34 1.92 17.07 5.55 19.57 -94.44 -48.67 -24.83 18.76 -13.73 36.74 10.13 -15.16 2.22 0.60 -6.95 -3.94 5.52 5.35 -5.09 
-3.4782 39.7887 -6.7369 -1.11 3.15 -6.47 0.24 -23.40 4.07 -2.46 12.46 52.56 -2.21 3.62 3.51 4.57 5.97 -8.25 6.01 1.45 -67.53 -0.36 -10.82 -1.89 -2.92 -0.02 8.76 -0.00 0.00 8.29 -4.60 1.03 -4.74 90.80 4.16 26.87 -7.26 -2.78 -11.24 5.65 0.64 1.93 16.44 5.36 19.32 -99.47 -48.65 -29.02 17.96 -16.32 34.33 10.31 -14.48 2.05 0.81 -6.96 -4.60 5.85 4.88 -5.74 
-3.4226 39.7467 -6.8848 -1.32 3.28 -5.23 0.02 -23.78 4.02 -2.49 12.37 51.55 -1.78 3.66 3.38 4.66 5.32 -8.40 6.37 2.10 -68.48 -0.29 -11.36 -1.88 -2.75 -0.04 8.73 -0.00 0.00 8.29 -4.31 0.90 -3.86 91.35 4.70 27.36 -6.95 -3.36 -11.71 5.16 0.65 1.89 15.77 5.23 19.40 -103.12 -48.38 -31.98 17.37 -18.82 32.80 10.02 -14.63 2.15 0.86 -6.71 -5.11 6.09 4.23 -6.26 
-3.3938 39.7095 -7.0000 -1.60 3.39 -3.89 -0.04 -24.05 4.27 -2.68 12.23 50.30 -1.25 3.56 3.18 4.71 4.75 -8.57 6.98 2.82 -69.45 -0.11 -11.83 -1.85 -2.65 0.02 8.74 -0.00 0.00 8.31 -3.95 0.78 -3.06 91.68 4.63 28.51 -6.40 -3.16 -12.87 4.54 0.36 1.81 15.36 5.10 19.19 -105.63 -48.00 -32.22 17.56 -22.40 31.07 7.34 -14.56 1.89 1.16 -6.53 -5.80 5.86 3.64 -6.76 
-3.3704 39.6691 -7.0635 -1.84 3.52 -2.76 0.07 -24.35 4.91 -3.08 12.32 49.16 -0.83 3.21 2.73 4.71 4.14 -8.83 7.55 3.71 -70.01 0.25 -12.31 -1.81 -2.68 0.09 8.89 -0.00 0.00 8.46 -3.56 0.67 -2.30 91.69 4.10 29.40 -6.05 -2.53 -13.78 4.80 0.19 1.82 15.14 4.98 18.88 -107.10 -47.51 -30.61 17.91 -26.30 30.62 3.43 -14.06 1.45 1.38 -6.52 -6.50 5.65 3.25 -7.32 
-3.3201 39.6149 -7.0704 -2.04 3.68 -2.07 0.41 -24.74 6.07 -3.67 12.83 47.94 -0.36 2.47 2.34 4.55 3.37 -9.27 8.09 5.19 -69.95 1.00 -12.88 -1.73 -2.66 0.21 9.11 -0.00 0.00 8.68 -3.05 0.56 -1.54 91.01 3.72 29.23 -6.16 -2.31 -13.78 6.69 0.59 1.92 14.97 4.99 19.07 -107.36 -46.67 -28.10 17.83 -30.39 31.98 0.51 -12.92 1.06 1.23 -6.31 -6.83 5.89 2.78 -7.72 
-3.2662 39.5395 -7.0821 -2.27 3.85 -1.54 0.95 -25.17 7.91 -4.30 13.51 46.21 0.38 1.58 1.81 4.29 2.37 -9.80 8.80 7.19 -69.67 1.88 -13.64 -1.65 -2.97 0.42 9.18 -0.00 0.00 8.70 -2.16 0.40 -0.32 90.11 3.23 28.73 -6.44 -2.26 -13.52 8.95 1.41 2.14 15.68 5.31 19.80 -107.76 -45.68 -26.45 17.54 -33.36 35.05 -3.87 -10.23 0.45 1.99 -6.57 -7.13 5.75 2.59 -7.78 
-3.2140 39.4393 -7.1328 -2.50 4.03 -1.07 1.55 -25.66 10.10 -4.76 14.31 44.05 1.24 0.66 1.15 3.82 1.17 -10.50 9.83 9.56 -69.21 2.84 -14.63 -1.60 -2.61 0.60 9.12 -0.00 0.00 8.71 -2.59 0.40 -0.21 90.01 3.70 28.19 -6.63 -1.69 -13.48 10.99 2.34 2.31 15.25 5.35 20.37 -107.26 -45.25 -26.08 17.19 -32.60 39.11 -10.67 -5.89 0.10 1.29 -6.48 -7.29 6.62 2.33 -8.30 
-3.1380 39.3384 -7.2093 -2.70 4.24 -1.00 2.29 -26.10 12.61 -5.06 15.19 41.79 2.05 -0.34 0.31 3.35 -0.20 -10.86 10.66 12.03 -68.78 3.79 -15.50 -1.52 -2.12 0.76 9.24 -0.00 0.00 8.92 -3.53 0.54 -1.16 90.38 4.80 27.55 -6.82 -0.73 -13.43 12.97 3.32 2.36 14.61 5.17 20.19 -107.27 -44.45 -29.39 16.20 -27.05 44.05 -15.21 -3.33 0.05 0.28 -6.31 -7.45 7.68 1.96 -8.94 
-3.0118 39.2753 -7.2562 -2.81 4.53 -1.72 3.15 -26.38 15.18 -5.30 16.12 39.86 2.57 -1.34 -0.79 2.88 -1.30 -11.14 11.09 13.88 -67.57 4.33 -16.02 -1.57 -1.71 0.80 9.35 -0.00 0.00 9.09 -4.28 0.64 -1.76 90.56 6.00 27.12 -6.88 0.49 -12.83 14.51 4.10 2.50 13.61 4.84 19.69 -107.09 -42.93 -33.69 14.69 -20.03 47.45 -17.76 -0.60 0.44 -0.08 -6.13 -7.37 8.16 1.51 -9.04 
-2.7931 39.2621 -7.2102 -2.79 4.84 -3.56 4.37 -26.51 17.68 -5.71 17.48 38.09 2.61 -2.31 -1.67 2.31 -1.93 -11.46 11.03 14.98 -65.14 4.50 -16.10 -1.60 -1.73 0.92 9.30 -0.00 0.00 9.05 -4.32 0.52 -0.77 90.31 6.37 27.21 -6.80 1.87 -11.96 15.09 5.45 2.59 13.27 4.72 19.48 -107.97 -39.84 -39.28 12.51 -11.80 49.41 -19.46 0.42 0.56 0.88 -6.51 -6.84 7.60 1.30 -8.15 
-2.4814 39.2717 -7.0507 -2.65 5.12 -6.55 5.96 -26.59 19.77 -6.27 19.67 35.90 2.43 -3.41 -1.80 1.55 -2.18 -11.84 10.64 15.66 -61.40 4.55 -15.90 -1.57 -1.53 1.08 9.52 -0.00 0.00 9.31 -4.98 0.52 -0.51 90.82 6.86 27.23 -6.77 3.15 -10.75 17.25 7.06 2.73 12.07 4.19 18.10 -107.38 -35.19 -41.71 10.69 -6.15 48.66 -20.61 2.10 0.92 0.59 -7.05 -5.90 7.90 1.33 -7.38 
-2.1271 39.2859 -6.7975 -2.51 5.44 -10.49 7.60 -26.66 21.00 -6.42 22.42 32.79 2.57 -4.83 -0.99 0.88 -2.30 -11.90 9.82 16.05 -56.89 4.62 -15.43 -1.59 -1.66 1.03 9.70 -0.00 0.00 9.47 -5.15 0.51 -0.42 92.08 7.14 28.00 -6.34 4.11 -10.57 18.29 7.68 2.68 11.76 3.88 16.83 -106.37 -28.54 -41.29 9.69 -1.92 46.19 -21.93 4.21 1.66 1.23 -7.35 -4.61 7.67 1.23 -5.93 
-1.7609 39.3279 -6.4485 -1.94 5.74 -15.25 8.64 -26.11 21.61 -6.18 24.61 28.92 2.76 -6.56 -0.27 -0.05 -2.47 -11.81 8.47 16.23 -51.75 4.81 -14.65 -1.57 -1.76 0.88 9.71 -0.00 0.00 9.45 -5.55 0.51 -0.32 93.98 6.51 27.91 -6.56 3.32 -8.17 16.22 8.55 1.94 11.19 3.57 15.71 -104.50 -20.89 -39.06 9.05 1.56 43.87 -23.15 6.13 2.18 1.86 -7.05 -2.81 7.15 0.80 -3.91 
-1.3437 39.3885 -5.9867 -1.10 6.02 -20.92 9.59 -25.03 21.96 -6.22 26.24 25.34 2.53 -8.26 0.08 -1.56 -3.03 -11.91 7.19 16.83 -45.84 4.69 -13.91 -1.64 -1.81 0.72 9.37 -0.00 0.00 9.09 -6.11 0.50 -0.07 96.88 3.68 28.07 -7.14 2.94 -3.16 20.14 9.43 1.86 10.91 3.39 15.03 -102.04 -11.54 -35.50 8.71 2.95 41.84 -22.87 7.06 2.63 2.19 -6.56 -0.25 6.69 0.35 -1.23 
